<svg width="38" height="38" viewBox="0 0 38 38" fill="none" xmlns="http://www.w3.org/2000/svg">
<circle cx="19" cy="19" r="19" fill="#D80027"/>
<path d="M18.222 15.5234L19.781 17.6717L22.3057 16.8531L20.7443 18.9995L22.303 21.1477L19.7792 20.3259L18.2179 22.4723L18.2195 19.8182L15.6956 18.9964L18.2204 18.1778L18.222 15.5234Z" fill="#F0F0F0"/>
<path d="M13.9675 24.3689C11.002 24.3689 8.59793 21.9648 8.59793 18.9994C8.59793 16.0339 11.002 13.6298 13.9675 13.6298C14.8921 13.6298 15.7621 13.8636 16.5217 14.2752C15.3301 13.1098 13.7005 12.3906 11.9023 12.3906C8.25237 12.3906 5.29364 15.3494 5.29364 18.9993C5.29364 22.6491 8.25244 25.6079 11.9023 25.6079C13.7006 25.6079 15.3302 24.8887 16.5217 23.7234C15.7621 24.1351 14.8921 24.3689 13.9675 24.3689Z" fill="#F0F0F0"/>
</svg>
