<svg width="20" height="20" viewBox="0 0 20 20" fill="none" xmlns="http://www.w3.org/2000/svg">
<path fill-rule="evenodd" clip-rule="evenodd" d="M0 10C0 4.47715 4.47715 0 10 0C15.5228 0 20 4.47715 20 10C20 15.5228 15.5228 20 10 20C4.47715 20 0 15.5228 0 10ZM11.3697 11.9364C12.5249 10.2496 13.6776 8.5614 14.8276 6.87193C15.121 6.44693 15.0342 6.00219 14.6131 5.70351C14.5106 5.63119 14.4061 5.56223 14.3015 5.49315C14.2329 5.44786 14.1643 5.40251 14.096 5.35614C13.6341 5.04561 13.2078 5.10745 12.8881 5.57193C11.8109 7.14298 10.7341 8.71798 9.65783 10.2969L8.59336 11.8548L7.96968 11.4101C7.84432 11.3208 7.71962 11.2307 7.59498 11.1406C7.28789 10.9186 6.98113 10.6968 6.66573 10.489C6.28547 10.239 5.87362 10.3298 5.59994 10.6903C5.52515 10.7896 5.45369 10.8905 5.38205 10.9916C5.3264 11.0702 5.27063 11.149 5.2131 11.2272C4.88415 11.6851 4.9381 12.1114 5.39468 12.4417C6.41222 13.182 7.43547 13.914 8.46441 14.6377C8.94468 14.9759 9.36704 14.8825 9.69336 14.3982C10.2486 13.5772 10.8074 12.7566 11.3697 11.9364Z" fill="#007BFF"/>
</svg>
