<svg width="30" height="22" viewBox="0 0 30 22" fill="none" xmlns="http://www.w3.org/2000/svg">
<path d="M27.2554 0H2.30978C1.03623 0 0 1.03623 0 2.30978V18.9402C0 20.2138 1.03623 21.25 2.30978 21.25H27.2554C28.529 21.25 29.5652 20.2138 29.5652 18.9402V2.30978C29.5652 1.03623 28.529 0 27.2554 0Z" fill="#5D647F"/>
<path d="M10.1631 9.23879H4.61959C4.1093 9.23879 3.69568 8.82517 3.69568 8.31488V4.61923C3.69568 4.10894 4.1093 3.69531 4.61959 3.69531H10.1631C10.6734 3.69531 11.087 4.10894 11.087 4.61923V8.31488C11.087 8.82517 10.6734 9.23879 10.1631 9.23879Z" fill="#FFD100"/>
<path d="M6.92937 15.2434H4.61959C4.1093 15.2434 3.69568 14.8298 3.69568 14.3195V13.8575C3.69568 13.3472 4.1093 12.9336 4.61959 12.9336H6.92937C7.43966 12.9336 7.85329 13.3472 7.85329 13.8575V14.3195C7.85329 14.8298 7.43966 15.2434 6.92937 15.2434Z" fill="#B8BAC0"/>
<path d="M12.9348 15.2434H10.625C10.1147 15.2434 9.70111 14.8298 9.70111 14.3195V13.8575C9.70111 13.3472 10.1147 12.9336 10.625 12.9336H12.9348C13.4451 12.9336 13.8587 13.3472 13.8587 13.8575V14.3195C13.8587 14.8298 13.4451 15.2434 12.9348 15.2434Z" fill="#B8BAC0"/>
<path d="M18.9402 15.2434H16.6305C16.1202 15.2434 15.7065 14.8298 15.7065 14.3195V13.8575C15.7065 13.3472 16.1202 12.9336 16.6305 12.9336H18.9402C19.4505 12.9336 19.8642 13.3472 19.8642 13.8575V14.3195C19.8642 14.8298 19.4505 15.2434 18.9402 15.2434Z" fill="#B8BAC0"/>
<path d="M24.9457 15.2434H22.6359C22.1256 15.2434 21.712 14.8298 21.712 14.3195V13.8575C21.712 13.3472 22.1256 12.9336 22.6359 12.9336H24.9457C25.456 12.9336 25.8696 13.3472 25.8696 13.8575V14.3195C25.8696 14.8298 25.456 15.2434 24.9457 15.2434Z" fill="#B8BAC0"/>
<path d="M13.3968 18.0177H4.15764C3.90229 18.0177 3.69568 17.8108 3.69568 17.5557C3.69568 17.3006 3.90229 17.0938 4.15764 17.0938H13.3968C13.6521 17.0938 13.8587 17.3006 13.8587 17.5557C13.8587 17.8108 13.6521 18.0177 13.3968 18.0177Z" fill="#8A8895"/>
<path d="M19.4022 18.0177H15.2445C14.9892 18.0177 14.7826 17.8108 14.7826 17.5557C14.7826 17.3006 14.9892 17.0938 15.2445 17.0938H19.4022C19.6575 17.0938 19.8641 17.3006 19.8641 17.5557C19.8641 17.8108 19.6575 18.0177 19.4022 18.0177Z" fill="#8A8895"/>
<path d="M11.0869 6.92901H6.46737V6.0051H11.0869V5.08118H6.46737V3.69531H5.54346V9.23879H6.46737V7.85292H11.0869V6.92901Z" fill="#FF9500"/>
<circle cx="23.0978" cy="6.46705" r="2.77174" fill="#FF4F19"/>
</svg>
