<svg width="42" height="42" viewBox="0 0 42 42" fill="none" xmlns="http://www.w3.org/2000/svg">
<g clip-path="url(#clip0_1_17)">
<g clip-path="url(#clip1_1_17)">
<g clip-path="url(#clip2_1_17)">
<g filter="url(#filter0_d_1_17)">
<circle cx="21" cy="21" r="21" fill="#F2F2F2"/>
<circle cx="21" cy="21" r="20.5" stroke="#007BFF"/>
</g>
<path d="M20.6624 28.3661L21.9239 26.045L24.2831 21.7231C26.1072 18.3698 29.0383 15.7532 32.5763 14.3198L34.2666 13.6338H33.0318C26.9912 13.6325 21.4339 16.9361 18.5491 22.2433L18.2442 22.8036L15.2238 28.3661H20.6624Z" fill="#007BFF"/>
<path d="M15.2463 28.366H20.7002L17.7694 21.6582C16.2196 18.801 14.0322 17.362 10.7834 17.2582C10.6843 17.2543 10.5833 17.2524 10.4823 17.2524L15.2463 28.366Z" fill="#007BFF"/>
</g>
</g>
</g>
<defs>
<filter id="filter0_d_1_17" x="-10" y="-10" width="62" height="62" filterUnits="userSpaceOnUse" color-interpolation-filters="sRGB">
<feFlood flood-opacity="0" result="BackgroundImageFix"/>
<feColorMatrix in="SourceAlpha" type="matrix" values="0 0 0 0 0 0 0 0 0 0 0 0 0 0 0 0 0 0 127 0" result="hardAlpha"/>
<feOffset/>
<feGaussianBlur stdDeviation="5"/>
<feColorMatrix type="matrix" values="0 0 0 0 0.718924 0 0 0 0 0.78925 0 0 0 0 0.854167 0 0 0 0.1 0"/>
<feBlend mode="normal" in2="BackgroundImageFix" result="effect1_dropShadow_1_17"/>
<feBlend mode="normal" in="SourceGraphic" in2="effect1_dropShadow_1_17" result="shape"/>
</filter>
<clipPath id="clip0_1_17">
<rect width="42" height="42" fill="white"/>
</clipPath>
<clipPath id="clip1_1_17">
<rect width="42" height="42" fill="white"/>
</clipPath>
<clipPath id="clip2_1_17">
<rect width="42" height="42" fill="white"/>
</clipPath>
</defs>
</svg>
