<svg width="24" height="24" viewBox="0 0 24 24" fill="none" xmlns="http://www.w3.org/2000/svg">
<path d="M23.0938 9.91453L13.3044 9.91406C12.8721 9.91406 12.5217 10.2644 12.5217 10.6967V13.824C12.5217 14.2561 12.8721 14.6066 13.3044 14.6066H18.8171C18.2135 16.1732 17.0868 17.4852 15.6493 18.3188L18 22.388C21.7707 20.2072 24 16.3808 24 12.0975C24 11.4876 23.955 11.0516 23.8651 10.5607C23.7968 10.1877 23.4729 9.91453 23.0938 9.91453Z" fill="#167EE6"/>
<path d="M12 19.3037C9.30218 19.3037 6.94699 17.8297 5.68207 15.6484L1.61304 17.9938C3.68374 21.5826 7.56283 23.9994 12 23.9994C14.1768 23.9994 16.2307 23.4133 18 22.3919V22.3863L15.6494 18.3171C14.5742 18.9408 13.3299 19.3037 12 19.3037Z" fill="#12B347"/>
<path d="M18 22.3912V22.3856L15.6494 18.3164C14.5741 18.94 13.33 19.303 12 19.303V23.9986C14.1767 23.9986 16.2308 23.4126 18 22.3912Z" fill="#0F993E"/>
<path d="M4.69566 11.9983C4.69566 10.6685 5.05856 9.42442 5.68205 8.34925L1.61302 6.00391C0.586031 7.76767 0 9.81602 0 11.9983C0 14.1806 0.586031 16.229 1.61302 17.9928L5.68205 15.6474C5.05856 14.5722 4.69566 13.3281 4.69566 11.9983Z" fill="#FFD500"/>
<path d="M12 4.69566C13.7593 4.69566 15.3752 5.32078 16.6374 6.36061C16.9488 6.61711 17.4014 6.59859 17.6866 6.31336L19.9024 4.09758C20.226 3.77395 20.203 3.24422 19.8573 2.94431C17.7425 1.10967 14.991 0 12 0C7.56281 0 3.68372 2.41673 1.61302 6.00558L5.68205 8.35092C6.94697 6.16969 9.30216 4.69566 12 4.69566Z" fill="#FF4B26"/>
<path d="M16.6374 6.36061C16.9488 6.61711 17.4015 6.59859 17.6866 6.31336L19.9024 4.09758C20.226 3.77395 20.2029 3.24422 19.8573 2.94431C17.7425 1.10963 14.991 0 12 0V4.69566C13.7592 4.69566 15.3752 5.32078 16.6374 6.36061Z" fill="#D93F21"/>
</svg>
