<svg width="50" height="50" viewBox="0 0 50 50" fill="none" xmlns="http://www.w3.org/2000/svg">
<rect width="50" height="50" rx="25" fill="white"/>
<g clip-path="url(#clip0_1_306)">
<path d="M29.9438 24.1163C29.8425 23.8925 29.62 23.75 29.375 23.75H26.875V15.625C26.875 15.28 26.595 15 26.25 15H23.75C23.405 15 23.125 15.28 23.125 15.625V23.75H20.625C20.38 23.75 20.1575 23.8938 20.0563 24.1163C19.9538 24.34 19.9938 24.6012 20.155 24.7863L24.53 29.7863C24.6488 29.9225 24.82 30 25 30C25.18 30 25.3513 29.9213 25.47 29.7863L29.845 24.7863C30.0075 24.6025 30.045 24.34 29.9438 24.1163Z" fill="#007BFF"/>
<path d="M31.875 28.75V32.5H18.125V28.75H15.625V33.75C15.625 34.4412 16.185 35 16.875 35H33.125C33.8162 35 34.375 34.4412 34.375 33.75V28.75H31.875Z" fill="#007BFF"/>
</g>
<defs>
<clipPath id="clip0_1_306">
<rect width="20" height="20" fill="white" transform="translate(15 15)"/>
</clipPath>
</defs>
</svg>
