<svg width="81" height="119" viewBox="0 0 81 119" fill="none" xmlns="http://www.w3.org/2000/svg">
<circle cx="41.5" cy="36.5" r="36.5" fill="white"/>
<path d="M34 21C32.9 21 32 21.9 32 23V51C32 52.1 32.9 53 34 53H54C55.1 53 56 52.1 56 51V29L48 21H34Z" fill="#E2E5E7"/>
<path d="M50 29H56L48 21V27C48 28.1 48.9 29 50 29Z" fill="#B0B7BD"/>
<path d="M56 35L50 29H56V35Z" fill="#CAD1D8"/>
<path d="M52 47C52 47.55 51.55 48 51 48H29C28.45 48 28 47.55 28 47V37C28 36.45 28.45 36 29 36H51C51.55 36 52 36.45 52 37V47Z" fill="#50BEE8"/>
<path fill-rule="evenodd" clip-rule="evenodd" d="M31.234 44.504C31.234 44.855 31.522 45 31.786 45H33.688C37.19 45 37.271 39.467 33.617 39.467H31.786C31.522 39.467 31.234 39.675 31.234 39.963V44.504ZM32.29 44.024V40.442H33.617C35.871 40.442 35.776 44.024 33.617 44.024H32.29Z" fill="white"/>
<path fill-rule="evenodd" clip-rule="evenodd" d="M37.235 42.201C37.235 44.16 38.771 45.144 40.25 45.08C41.649 45.08 43.112 44.097 43.112 42.201C43.112 40.306 41.649 39.338 40.25 39.267C38.77 39.267 37.235 40.234 37.235 42.201ZM38.291 42.202C38.291 40.939 39.266 40.307 40.162 40.307C41.082 40.307 42.065 40.938 42.065 42.202C42.065 43.458 41.082 44.098 40.162 44.098C39.267 44.098 38.291 43.458 38.291 42.202Z" fill="white"/>
<path d="M44.053 42.1931C44.053 40.6501 45.021 39.3231 46.86 39.3231C47.556 39.3231 48.108 39.5311 48.691 40.0351C48.907 40.2341 48.931 40.5861 48.715 40.8101C48.499 41.0011 48.171 40.9781 47.979 40.7861C47.652 40.4421 47.316 40.3471 46.86 40.3471C45.629 40.3471 45.038 41.2191 45.038 42.1941C45.038 43.1861 45.621 44.0971 46.86 44.0971C47.316 44.0971 47.74 43.9121 48.108 43.5851C48.355 43.3931 48.699 43.4881 48.843 43.6811C48.971 43.8571 49.034 44.1531 48.755 44.4321C48.195 44.9531 47.524 45.0571 46.859 45.0571C44.925 45.0571 44.053 43.7361 44.053 42.1931Z" fill="white"/>
<path d="M51 48H32V49H51C51.55 49 52 48.55 52 48V47C52 47.55 51.55 48 51 48Z" fill="#CAD1D8"/>
<path d="M24.5663 87.2H26.3863V97H24.5663V92.8H19.4983V97H17.6783V87.2H19.4983V91.246H24.5663V87.2ZM35.8723 93.304C35.8723 93.444 35.8583 93.654 35.8443 93.822H29.9783C30.1883 94.914 31.0983 95.614 32.4003 95.614C33.2403 95.614 33.8983 95.348 34.4303 94.802L35.3683 95.88C34.6963 96.678 33.6463 97.098 32.3583 97.098C29.8523 97.098 28.2283 95.488 28.2283 93.262C28.2283 91.036 29.8663 89.44 32.0923 89.44C34.2763 89.44 35.8723 90.966 35.8723 93.304ZM32.0923 90.84C30.9583 90.84 30.1323 91.568 29.9643 92.66H34.2063C34.0663 91.582 33.2403 90.84 32.0923 90.84ZM40.2042 89.44C42.3602 89.44 43.6062 90.462 43.6062 92.618V97H41.9542V96.09C41.5342 96.734 40.7222 97.098 39.6022 97.098C37.8942 97.098 36.8162 96.16 36.8162 94.858C36.8162 93.612 37.6562 92.632 39.9242 92.632H41.8562V92.52C41.8562 91.498 41.2402 90.896 39.9942 90.896C39.1542 90.896 38.2862 91.176 37.7262 91.638L37.0402 90.364C37.8382 89.748 39.0002 89.44 40.2042 89.44ZM39.9662 95.824C40.8202 95.824 41.5622 95.432 41.8562 94.662V93.794H40.0502C38.8602 93.794 38.5382 94.242 38.5382 94.788C38.5382 95.418 39.0702 95.824 39.9662 95.824ZM45.8521 97V86.612H47.6021V97H45.8521ZM54.2721 95.348L54.7621 96.594C54.3421 96.93 53.7121 97.098 53.0821 97.098C51.4441 97.098 50.5061 96.23 50.5061 94.578V90.98H49.2741V89.58H50.5061V87.872H52.2561V89.58H54.2581V90.98H52.2561V94.536C52.2561 95.264 52.6201 95.656 53.2921 95.656C53.6561 95.656 54.0061 95.558 54.2721 95.348ZM60.4437 89.44C62.2357 89.44 63.5657 90.462 63.5657 92.716V97H61.8157V92.94C61.8157 91.61 61.1577 90.966 60.0377 90.966C58.7917 90.966 57.9517 91.722 57.9517 93.22V97H56.2017V86.612H57.9517V90.392C58.5257 89.776 59.4077 89.44 60.4437 89.44ZM1.44295 114V104.2H3.26295V114H1.44295ZM9.98766 106.44C11.7797 106.44 13.1097 107.462 13.1097 109.716V114H11.3597V109.94C11.3597 108.61 10.7017 107.966 9.58166 107.966C8.33566 107.966 7.49566 108.722 7.49566 110.22V114H5.74566V106.524H7.41166V107.49C7.98566 106.804 8.89566 106.44 9.98766 106.44ZM17.6396 114.098C16.3936 114.098 15.1476 113.734 14.4756 113.258L15.1476 111.928C15.8056 112.362 16.8136 112.67 17.7516 112.67C18.8576 112.67 19.3196 112.362 19.3196 111.844C19.3196 110.416 14.6996 111.76 14.6996 108.778C14.6996 107.364 15.9736 106.44 17.9896 106.44C18.9836 106.44 20.1176 106.678 20.7896 107.084L20.1176 108.414C19.4036 107.994 18.6896 107.854 17.9756 107.854C16.9116 107.854 16.4076 108.204 16.4076 108.694C16.4076 110.206 21.0276 108.862 21.0276 111.788C21.0276 113.188 19.7396 114.098 17.6396 114.098ZM26.5387 112.348L27.0287 113.594C26.6087 113.93 25.9787 114.098 25.3487 114.098C23.7107 114.098 22.7727 113.23 22.7727 111.578V107.98H21.5407V106.58H22.7727V104.872H24.5227V106.58H26.5247V107.98H24.5227V111.536C24.5227 112.264 24.8867 112.656 25.5587 112.656C25.9227 112.656 26.2727 112.558 26.5387 112.348ZM33.9563 106.524H35.7063V114H34.0403V113.048C33.4803 113.734 32.5983 114.098 31.6323 114.098C29.7143 114.098 28.4123 113.048 28.4123 110.794V106.524H30.1623V110.556C30.1623 111.914 30.8063 112.558 31.9123 112.558C33.1303 112.558 33.9563 111.802 33.9563 110.304V106.524ZM41.4276 114.098C39.0616 114.098 37.3816 112.502 37.3816 110.262C37.3816 108.022 39.0616 106.44 41.4276 106.44C42.8836 106.44 44.0456 107.042 44.6196 108.176L43.2756 108.96C42.8276 108.246 42.1556 107.924 41.4136 107.924C40.1256 107.924 39.1456 108.82 39.1456 110.262C39.1456 111.718 40.1256 112.6 41.4136 112.6C42.1556 112.6 42.8276 112.278 43.2756 111.564L44.6196 112.348C44.0456 113.468 42.8836 114.098 41.4276 114.098ZM50.2321 112.348L50.7221 113.594C50.3021 113.93 49.6721 114.098 49.0421 114.098C47.4041 114.098 46.4661 113.23 46.4661 111.578V107.98H45.2341V106.58H46.4661V104.872H48.2161V106.58H50.2181V107.98H48.2161V111.536C48.2161 112.264 48.5801 112.656 49.2521 112.656C49.6161 112.656 49.9661 112.558 50.2321 112.348ZM53.0437 105.292C52.3997 105.292 51.9237 104.83 51.9237 104.242C51.9237 103.654 52.3997 103.192 53.0437 103.192C53.6877 103.192 54.1637 103.626 54.1637 104.2C54.1637 104.816 53.7017 105.292 53.0437 105.292ZM52.1617 114V106.524H53.9117V114H52.1617ZM59.5685 114.098C57.2725 114.098 55.5925 112.502 55.5925 110.262C55.5925 108.022 57.2725 106.44 59.5685 106.44C61.8925 106.44 63.5585 108.022 63.5585 110.262C63.5585 112.502 61.8925 114.098 59.5685 114.098ZM59.5685 112.6C60.8425 112.6 61.7945 111.69 61.7945 110.262C61.7945 108.834 60.8425 107.924 59.5685 107.924C58.3085 107.924 57.3565 108.834 57.3565 110.262C57.3565 111.69 58.3085 112.6 59.5685 112.6ZM69.474 106.44C71.266 106.44 72.596 107.462 72.596 109.716V114H70.846V109.94C70.846 108.61 70.188 107.966 69.068 107.966C67.822 107.966 66.982 108.722 66.982 110.22V114H65.232V106.524H66.898V107.49C67.472 106.804 68.382 106.44 69.474 106.44ZM77.126 114.098C75.88 114.098 74.634 113.734 73.962 113.258L74.634 111.928C75.292 112.362 76.3 112.67 77.238 112.67C78.344 112.67 78.806 112.362 78.806 111.844C78.806 110.416 74.186 111.76 74.186 108.778C74.186 107.364 75.46 106.44 77.476 106.44C78.47 106.44 79.604 106.678 80.276 107.084L79.604 108.414C78.89 107.994 78.176 107.854 77.462 107.854C76.398 107.854 75.894 108.204 75.894 108.694C75.894 110.206 80.514 108.862 80.514 111.788C80.514 113.188 79.226 114.098 77.126 114.098Z" fill="#394149"/>
</svg>
